<?xml version="1.0" encoding="utf-8"?>
<!-- Generator: Adobe Illustrator 26.3.1, SVG Export Plug-In . SVG Version: 6.00 Build 0)  -->
<svg version="1.1" id="Layer_1" xmlns="http://www.w3.org/2000/svg" xmlns:xlink="http://www.w3.org/1999/xlink" x="0px" y="0px"
	 viewBox="0 0 700 640" style="enable-background:new 0 0 700 640;" xml:space="preserve">
<style type="text/css">
	.st0{fill:#B21653;}
	.st1{fill:#2860AC;}
	.st2{fill-rule:evenodd;clip-rule:evenodd;fill:url(#SVGID_1_);}
	.st3{fill-rule:evenodd;clip-rule:evenodd;fill:url(#SVGID_00000165213164824589958910000008682986934167593117_);}
	.st4{fill-rule:evenodd;clip-rule:evenodd;fill:url(#SVGID_00000164477574189651161790000005443583546748593035_);}
	.st5{fill-rule:evenodd;clip-rule:evenodd;fill:url(#SVGID_00000025444808794559145510000010102739640436390586_);}
	.st6{fill-rule:evenodd;clip-rule:evenodd;fill:url(#SVGID_00000110447499832158102420000001010442219671434157_);}
	.st7{fill-rule:evenodd;clip-rule:evenodd;fill:url(#SVGID_00000112630081122626317060000000534375428635750829_);}
	.st8{fill-rule:evenodd;clip-rule:evenodd;fill:url(#SVGID_00000042707634271378262930000018159781160132655763_);}
	.st9{fill-rule:evenodd;clip-rule:evenodd;fill:url(#SVGID_00000162315484520821005240000003388397447093455283_);}
	.st10{fill-rule:evenodd;clip-rule:evenodd;fill:url(#SVGID_00000037685666898597060390000012607651389277832886_);}
	.st11{fill-rule:evenodd;clip-rule:evenodd;fill:url(#SVGID_00000113330898546851549920000002797524961578925961_);}
	.st12{fill-rule:evenodd;clip-rule:evenodd;fill:url(#SVGID_00000122000224595101611510000005506138000988427448_);}
	.st13{fill-rule:evenodd;clip-rule:evenodd;fill:url(#SVGID_00000029036556371044076820000006825395313570228629_);}
	.st14{fill-rule:evenodd;clip-rule:evenodd;fill:url(#SVGID_00000053545870983440178120000013151028145798413193_);}
	.st15{fill-rule:evenodd;clip-rule:evenodd;fill:url(#SVGID_00000030475303998785643790000016689564809190997645_);}
	.st16{fill-rule:evenodd;clip-rule:evenodd;fill:url(#SVGID_00000182506505510802131900000017107693229190736793_);}
	.st17{fill-rule:evenodd;clip-rule:evenodd;fill:url(#SVGID_00000026861122579950016320000014415883045049007258_);}
	.st18{fill-rule:evenodd;clip-rule:evenodd;fill:url(#SVGID_00000121966180329414452180000007551559097380357506_);}
	.st19{fill-rule:evenodd;clip-rule:evenodd;fill:url(#SVGID_00000078043317247855711720000005100016870156618902_);}
	.st20{fill-rule:evenodd;clip-rule:evenodd;fill:url(#SVGID_00000027598975306210899780000017886637636256609682_);}
	.st21{fill-rule:evenodd;clip-rule:evenodd;fill:url(#SVGID_00000139263644995144945070000014278060914620488884_);}
	.st22{fill-rule:evenodd;clip-rule:evenodd;fill:url(#SVGID_00000115510800950239344910000017864260218229753762_);}
	.st23{fill-rule:evenodd;clip-rule:evenodd;fill:url(#SVGID_00000051347538222318112730000005372116316009776819_);}
	.st24{fill-rule:evenodd;clip-rule:evenodd;fill:url(#SVGID_00000137843214837987069870000015706572917935528106_);}
	.st25{fill-rule:evenodd;clip-rule:evenodd;fill:url(#SVGID_00000078747815238560591100000003946069531422774688_);}
	.st26{fill-rule:evenodd;clip-rule:evenodd;fill:url(#SVGID_00000122705454226541210010000004065876314717210800_);}
	.st27{fill-rule:evenodd;clip-rule:evenodd;fill:url(#SVGID_00000033337117840428877070000017969894909641036217_);}
	.st28{fill-rule:evenodd;clip-rule:evenodd;fill:url(#SVGID_00000098918458949471909680000008511236371974918534_);}
	.st29{fill-rule:evenodd;clip-rule:evenodd;fill:url(#SVGID_00000079469113824585421640000007570079244569885851_);}
</style>
<g>
	<path class="st0" d="M56.6,541.3c0,6.5-1.4,11.5-4.3,14.9c-2.9,3.4-7,5.1-12.5,5.1c-5.2,0-9.2-1.6-12.1-4.7
		c-2.9-3.1-4.3-8.4-4.3-15.9v-60.6c0-3.1,0.4-5.7,1.2-8c0.8-2.2,2-4,3.5-5.4c1.5-1.3,3.3-2.3,5.2-2.9c1.9-0.6,4.1-0.9,6.5-0.9h47.1
		c5.5,0,9.7,0.9,12.4,2.6c2.7,1.7,4.1,4.8,4.1,9.3c0,4.2-1.2,7.2-3.5,8.8c-2.3,1.7-6.2,2.5-11.6,2.5H56.6V503h25.3
		c2.6,0,4.8,0.2,6.5,0.6c1.8,0.4,3.2,1,4.3,1.9c1.1,0.9,1.9,2,2.3,3.3c0.4,1.3,0.6,2.9,0.6,5c0,3.3-1.2,5.6-3.6,7
		c-2.4,1.4-6.2,2.1-11.5,2.1h-24V541.3z"/>
	<path class="st0" d="M117.1,472.9c0-3.2,1.4-5.8,4.1-7.8c2.7-2.1,6.6-3.1,11.6-3.1c10.4,0,15.6,3.6,15.6,10.9c0,4-1.3,6.8-3.9,8.5
		c-2.6,1.6-6.5,2.4-11.7,2.4c-4.5,0-8.2-0.9-11.2-2.6C118.5,479.5,117.1,476.7,117.1,472.9z M148.2,545.9c0,5.7-1.2,9.7-3.6,12
		c-2.4,2.2-6.6,3.4-12.6,3.4c-5.6,0-9.5-1.3-11.6-3.9c-2.1-2.6-3.1-7-3.1-13V509c0-4.9,1.3-8.8,3.9-11.8c2.6-3,6.1-4.4,10.5-4.4
		c5.2,0,9.2,1.1,12.1,3.4c2.9,2.2,4.3,6.4,4.3,12.4V545.9z"/>
	<path class="st0" d="M223.1,543.2c2.8,0,4.9,0.4,6.5,1.1c1.5,0.8,2.6,1.9,3.2,3.3c0.6,1.4,0.9,3.4,0.9,5.9c0,3.2-1.1,5.2-3.2,6.2
		c-2.2,1-6,1.5-11.4,1.5h-42.3c-3.3,0-6.2-1.1-9-3.4c-2.7-2.2-4.1-5.2-4.1-8.8c0-4,0.5-7.2,1.6-9.4c1.1-2.2,3.4-5.2,7.2-9l18.8-19.8
		h-10.5c-5.2,0-8.9-0.7-11.2-2.2c-2.3-1.4-3.4-3.8-3.4-7c0-3.5,0.8-5.9,2.4-7.1c1.6-1.2,5-1.8,10.2-1.8h43.6c3.5,0,6.3,1,8.4,2.9
		c2.1,2,3.1,4.7,3.1,8.1c0,3.3-0.4,5.7-1.3,7.5c-0.9,1.7-3.1,4.6-6.7,8.8L204,543.3L223.1,543.2z"/>
	<path class="st0" d="M306.6,543.2c2.8,0,4.9,0.4,6.5,1.1c1.5,0.8,2.6,1.9,3.2,3.3c0.6,1.4,0.9,3.4,0.9,5.9c0,3.2-1.1,5.2-3.2,6.2
		c-2.2,1-6,1.5-11.4,1.5h-42.3c-3.3,0-6.2-1.1-9-3.4c-2.7-2.2-4.1-5.2-4.1-8.8c0-4,0.5-7.2,1.6-9.4c1.1-2.2,3.4-5.2,7.2-9l18.8-19.8
		h-10.5c-5.2,0-8.9-0.7-11.2-2.2c-2.3-1.4-3.4-3.8-3.4-7c0-3.5,0.8-5.9,2.4-7.1c1.6-1.2,5-1.8,10.2-1.8h43.6c3.5,0,6.3,1,8.4,2.9
		c2.1,2,3.1,4.7,3.1,8.1c0,3.3-0.4,5.7-1.3,7.5c-0.9,1.7-3.1,4.6-6.7,8.8l-21.7,23.2L306.6,543.2z"/>
	<path class="st1" d="M408.6,510.2c8.9,5.3,13.3,12.3,13.3,21.1c0,3.8-0.7,7.5-2.2,11c-1.5,3.5-3.7,6.7-6.6,9.5
		c-2.9,2.9-6.8,5.1-11.6,6.8c-4.8,1.7-10.2,2.5-16.2,2.5h-33.3c-5.8,0-10-1.5-12.6-4.4c-2.5-3-3.8-8.3-3.8-15.9V480
		c0-3.3,0.6-6.1,1.7-8.6c1.1-2.5,3-4.5,5.5-6c2.5-1.5,5.6-2.3,9.1-2.3H385c9.6,0.1,17.5,2.7,23.9,7.8c6.4,5.1,9.5,11.7,9.5,19.7
		c0,2.6-0.2,4.9-0.6,6.8c-0.4,2-1.1,3.7-1.9,5.2c-0.9,1.5-1.9,2.9-3,4S410.3,509,408.6,510.2z M389.1,490.7c0-4-1.6-6.8-4.7-8.3
		c-3.1-1.5-8.3-2.2-15.6-2.2v22c4.5,0,8.2-0.3,11-1c2.8-0.7,5.1-1.8,6.7-3.5C388.3,495.9,389.1,493.6,389.1,490.7z M391,529
		c0-3.2-0.8-5.6-2.4-7.3c-1.6-1.7-4-2.9-7-3.7c-3.1-0.7-7.3-1.1-12.6-1.1v24.8c7.5,0,13-0.9,16.6-2.8C389.2,537.1,391,533.7,391,529
		z"/>
	<path class="st1" d="M472.1,531c0,5.5,2.1,8.2,6.3,8.2c1.4,0,2.7-0.5,3.8-1.4c1.1-0.9,1.9-2.2,2.5-3.8c0.6-1.6,0.9-3.5,0.9-5.6
		v-19.2c0-3.3,0.6-6.1,1.7-8.5s2.8-4.3,5-5.7c2.2-1.3,4.8-2,7.7-2c5.2,0,9.2,1.1,12.1,3.4c2.9,2.2,4.3,6.4,4.3,12.4V546
		c0,5.8-1.2,9.9-3.6,12.1c-2.4,2.2-6.6,3.3-12.6,3.3c-2.6,0-4.8-0.3-6.6-0.8c-1.8-0.5-3.3-1.3-4.4-2.4c-1.1-1.1-1.9-2.4-2.5-4.2
		c-3.9,2.6-8.1,4.4-12.4,5.5c-4.4,1.1-9.2,1.6-14.6,1.6c-6.8,0-11.7-2.7-14.6-8c-3-5.3-4.4-14-4.4-26.2c0-6,0.1-10.9,0.4-14.7
		c0.3-3.8,0.7-7,1.4-9.8c0.6-2.7,1.6-4.8,2.9-6.1c1.3-1.3,2.8-2.3,4.6-2.9c1.8-0.6,4.1-0.9,7-0.9c5.4,0,9.2,1,11.6,3
		c2.3,2,3.5,5,3.5,9L472.1,531z"/>
	<path class="st1" d="M592.2,543.2c2.8,0,4.9,0.4,6.5,1.1c1.5,0.8,2.6,1.9,3.2,3.3c0.6,1.4,0.9,3.4,0.9,5.9c0,3.2-1.1,5.2-3.2,6.2
		c-2.2,1-6,1.5-11.4,1.5h-42.3c-3.3,0-6.2-1.1-9-3.4c-2.7-2.2-4.1-5.2-4.1-8.8c0-4,0.5-7.2,1.6-9.4c1.1-2.2,3.4-5.2,7.2-9l18.8-19.8
		h-10.5c-5.2,0-8.9-0.7-11.2-2.2c-2.3-1.4-3.4-3.8-3.4-7c0-3.5,0.8-5.9,2.4-7.1c1.6-1.2,5-1.8,10.2-1.8h43.6c3.5,0,6.3,1,8.4,2.9
		c2.1,2,3.1,4.7,3.1,8.1c0,3.3-0.4,5.7-1.3,7.5s-3.1,4.6-6.7,8.8l-21.7,23.2L592.2,543.2z"/>
	<path class="st1" d="M675.7,543.2c2.8,0,4.9,0.4,6.5,1.1c1.5,0.8,2.6,1.9,3.2,3.3c0.6,1.4,0.9,3.4,0.9,5.9c0,3.2-1.1,5.2-3.2,6.2
		c-2.2,1-6,1.5-11.4,1.5h-42.3c-3.3,0-6.2-1.1-9-3.4c-2.7-2.2-4.1-5.2-4.1-8.8c0-4,0.5-7.2,1.6-9.4c1.1-2.2,3.4-5.2,7.2-9l18.8-19.8
		h-10.5c-5.2,0-8.9-0.7-11.2-2.2c-2.3-1.4-3.4-3.8-3.4-7c0-3.5,0.8-5.9,2.4-7.1c1.6-1.2,5-1.8,10.2-1.8h43.6c3.5,0,6.3,1,8.4,2.9
		c2.1,2,3.1,4.7,3.1,8.1c0,3.3-0.4,5.7-1.3,7.5c-0.9,1.7-3.1,4.6-6.7,8.8l-21.7,23.2L675.7,543.2z"/>
</g>
<g>
	<g>
		<g>
			<radialGradient id="SVGID_1_" cx="108.3218" cy="629.9451" r="862.9791" gradientUnits="userSpaceOnUse">
				<stop  offset="0" style="stop-color:#FFFFFF"/>
				<stop  offset="0.5" style="stop-color:#2FAFE6"/>
				<stop  offset="1" style="stop-color:#32338F"/>
			</radialGradient>
			<path class="st2" d="M533.9,201.9c-9,1.4-19.5,9.9-26.1,28.7c-2.6,7.3-8.9,32.1-17.3,47.9c-10,18.9-27.6,26.7-37.4-0.3
				c-4.7-12.9-22.4-21.8-37.6,11.6c-7.4,16.4-17.7,30.3-29.7,41.8c-60.2,57.5-163.3,50.5-169.8-38.7c-4.8,76,44.8,134.2,107,142.3
				c98.9,1.6,164.5-88.1,225.7-158.8c-37.1,23.1-12.9-29.1-5.1-40C558.9,215.6,548.2,199.7,533.9,201.9z"/>
			
				<radialGradient id="SVGID_00000125603601147928131510000000215685892023557282_" cx="658.1964" cy="12.2951" r="368.2739" gradientUnits="userSpaceOnUse">
				<stop  offset="0" style="stop-color:#FFFFFF"/>
				<stop  offset="0.5" style="stop-color:#2FAFE6"/>
				<stop  offset="1" style="stop-color:#32338F"/>
			</radialGradient>
			<path style="fill-rule:evenodd;clip-rule:evenodd;fill:url(#SVGID_00000125603601147928131510000000215685892023557282_);" d="
				M567.9,166.1c-6-3.3-14.8,1-19.6,9.7c-4.8,8.7-3.9,18.4,2.2,21.8c6,3.3,14.8-1,19.6-9.7C574.9,179.2,574,169.4,567.9,166.1z"/>
			
				<linearGradient id="SVGID_00000134221064613232535410000000294652433598929328_" gradientUnits="userSpaceOnUse" x1="907.5298" y1="517.3117" x2="413.4027" y2="346.7725">
				<stop  offset="0" style="stop-color:#32338F"/>
				<stop  offset="1" style="stop-color:#32338F;stop-opacity:0"/>
			</linearGradient>
			<path style="fill-rule:evenodd;clip-rule:evenodd;fill:url(#SVGID_00000134221064613232535410000000294652433598929328_);" d="
				M529.8,267.3c-64.1,103.7-132.3,166.6-206.7,168c98.9,1.6,164.5-88.1,225.7-158.8C529.3,288.6,526.7,279.9,529.8,267.3z"/>
			
				<linearGradient id="SVGID_00000032612631212389067460000002941856359054861460_" gradientUnits="userSpaceOnUse" x1="525.965" y1="344.0259" x2="427.0353" y2="290.46">
				<stop  offset="0" style="stop-color:#32338F"/>
				<stop  offset="1" style="stop-color:#32338F;stop-opacity:0"/>
			</linearGradient>
			<path style="fill-rule:evenodd;clip-rule:evenodd;fill:url(#SVGID_00000032612631212389067460000002941856359054861460_);" d="
				M453.2,278.2c-4.7-12.9-22.4-21.8-37.6,11.6c-22.7,57.4,37.7,68.8,75-11.3C480.6,297.4,462.9,305.2,453.2,278.2z"/>
			
				<radialGradient id="SVGID_00000029732767135318656650000007366354050061614476_" cx="279.4065" cy="348.7216" r="207.4322" gradientUnits="userSpaceOnUse">
				<stop  offset="0" style="stop-color:#FFFFFF"/>
				<stop  offset="0.5" style="stop-color:#2FAFE6"/>
				<stop  offset="1" style="stop-color:#32338F"/>
			</radialGradient>
			<path style="fill-rule:evenodd;clip-rule:evenodd;fill:url(#SVGID_00000029732767135318656650000007366354050061614476_);" d="
				M216.1,293c4.5,95.7,111.1,100.2,169.8,38.7C325.7,389.2,222.6,382.1,216.1,293z"/>
		</g>
		<g>
			
				<radialGradient id="SVGID_00000041995931138290927630000002573261907990792115_" cx="795.1179" cy="141.2879" r="712.4822" gradientUnits="userSpaceOnUse">
				<stop  offset="0" style="stop-color:#FFFFFF"/>
				<stop  offset="0.5" style="stop-color:#2FAFE6"/>
				<stop  offset="1" style="stop-color:#32338F"/>
			</radialGradient>
			<path style="fill-rule:evenodd;clip-rule:evenodd;fill:url(#SVGID_00000041995931138290927630000002573261907990792115_);" d="
				M597.9,225.5c-16.4,14.1-32.6,31.9-49.1,50.9C487.6,347.2,422,436.8,323.1,435.3c93.6,12.3,163.1-50.2,238.8-60.2
				c42.4-5.6,58.5-33.4,27.9-35.7c-17.6-1.4-29-11.4-19.6-27.4c13.6-23.1,49.8-33,73.3-45.7C711.5,229.8,652.2,178.7,597.9,225.5z"
				/>
			
				<radialGradient id="SVGID_00000181056917698658221670000004964983983875302328_" cx="720.0966" cy="354.0507" r="220.1408" gradientUnits="userSpaceOnUse">
				<stop  offset="0" style="stop-color:#FFFFFF"/>
				<stop  offset="0.5" style="stop-color:#2FAFE6"/>
				<stop  offset="1" style="stop-color:#32338F"/>
			</radialGradient>
			<path style="fill-rule:evenodd;clip-rule:evenodd;fill:url(#SVGID_00000181056917698658221670000004964983983875302328_);" d="
				M625.8,321c-10.2,3.5-16.5,12-14.1,19c2.4,7,12.6,10,22.7,6.5c10.2-3.5,16.5-12,14.1-19C646.2,320.5,636,317.6,625.8,321z"/>
			
				<radialGradient id="SVGID_00000145051786359452387680000004454395371135770519_" cx="434.3646" cy="372.4999" r="247.6145" gradientUnits="userSpaceOnUse">
				<stop  offset="0" style="stop-color:#FFFFFF"/>
				<stop  offset="0.5" style="stop-color:#2FAFE6"/>
				<stop  offset="1" style="stop-color:#32338F"/>
			</radialGradient>
			<path style="fill-rule:evenodd;clip-rule:evenodd;fill:url(#SVGID_00000145051786359452387680000004454395371135770519_);" d="
				M323.1,435.3c99.9,6,168.9-84.6,225.7-158.8C487.6,347.2,422,436.8,323.1,435.3z"/>
			
				<linearGradient id="SVGID_00000029761253763687502240000005267966303763641756_" gradientUnits="userSpaceOnUse" x1="521.0094" y1="277.4067" x2="567.7432" y2="349.1471">
				<stop  offset="0" style="stop-color:#32338F"/>
				<stop  offset="1" style="stop-color:#32338F;stop-opacity:0"/>
			</linearGradient>
			<path style="fill-rule:evenodd;clip-rule:evenodd;fill:url(#SVGID_00000029761253763687502240000005267966303763641756_);" d="
				M589.8,339.4c-17.6-1.4-29-11.4-19.6-27.4c2.9-4.9,6.7-9.1,11.2-13c-61.2,41.8-66.8,79-19.5,76.1
				C604.4,369.5,620.4,341.7,589.8,339.4z"/>
			
				<linearGradient id="SVGID_00000122710689122119543780000012599331897566684817_" gradientUnits="userSpaceOnUse" x1="615.0535" y1="151.1278" x2="615.0535" y2="256.8937">
				<stop  offset="0" style="stop-color:#FFFFFF"/>
				<stop  offset="1" style="stop-color:#FFFFFF;stop-opacity:0"/>
			</linearGradient>
			<path style="fill-rule:evenodd;clip-rule:evenodd;fill:url(#SVGID_00000122710689122119543780000012599331897566684817_);" d="
				M603.7,229.6c-13.7,11.8-27.3,26.7-41.1,42.7c53.8-41.9,103.1-46.2,96-20.4C686.5,223.7,643.5,195.3,603.7,229.6z"/>
		</g>
		<g>
			
				<radialGradient id="SVGID_00000004525921263336327800000012782391962077945523_" cx="333.5193" cy="806.4966" r="711.7135" gradientUnits="userSpaceOnUse">
				<stop  offset="0" style="stop-color:#FFFFFF"/>
				<stop  offset="0.5" style="stop-color:#2FAFE6"/>
				<stop  offset="1" style="stop-color:#32338F"/>
			</radialGradient>
			<path style="fill-rule:evenodd;clip-rule:evenodd;fill:url(#SVGID_00000004525921263336327800000012782391962077945523_);" d="
				M407.4,166.6c-9.9-6.8-24.4-8.6-43.3-3.3c-12,11.4-22.2,25.4-29.7,41.8c-15.3,33.4-33,24.6-37.6,11.6c-9.7-27-27.5-19.2-37.4-0.3
				c-8.3,15.8-14.6,40.6-17.2,47.9c-6.6,18.9-17.1,27.3-26.1,28.7c6.5,89.2,109.6,96.2,169.8,38.7
				C305.3,354.2,303.4,248.2,407.4,166.6z"/>
			
				<linearGradient id="SVGID_00000183930208220676901730000011824782767993052084_" gradientUnits="userSpaceOnUse" x1="117.0669" y1="330.7955" x2="341.1736" y2="330.7955">
				<stop  offset="0" style="stop-color:#32338F"/>
				<stop  offset="1" style="stop-color:#32338F;stop-opacity:0"/>
			</linearGradient>
			<path style="fill-rule:evenodd;clip-rule:evenodd;fill:url(#SVGID_00000183930208220676901730000011824782767993052084_);" d="
				M356.9,334c-41.2,38.9-124,34.2-140.7-41c6.5,89.2,109.6,96.2,169.8,38.7C374.7,334.7,364.9,335.4,356.9,334z"/>
			
				<linearGradient id="SVGID_00000167366186033083376660000008052663278268365716_" gradientUnits="userSpaceOnUse" x1="255.6832" y1="110.6786" x2="255.6832" y2="322.7845">
				<stop  offset="0" style="stop-color:#32338F"/>
				<stop  offset="1" style="stop-color:#32338F;stop-opacity:0"/>
			</linearGradient>
			<path style="fill-rule:evenodd;clip-rule:evenodd;fill:url(#SVGID_00000167366186033083376660000008052663278268365716_);" d="
				M259.4,216.3c-8.3,15.8-14.6,40.6-17.2,47.9c-4.5,12.7-10.6,20.7-17,25c10,3.9,25.5-2.8,34.3-27.9c2.5-7.3,8.9-32.1,17.2-47.9
				c2.7-5.1,6-9.4,9.5-12.4C277,195.4,266.3,203.2,259.4,216.3z"/>
			
				<linearGradient id="SVGID_00000176737164741822262760000010820568794955426449_" gradientUnits="userSpaceOnUse" x1="364.6754" y1="87.7211" x2="364.6754" y2="273.5649">
				<stop  offset="0" style="stop-color:#32338F"/>
				<stop  offset="1" style="stop-color:#32338F;stop-opacity:0"/>
			</linearGradient>
			<path style="fill-rule:evenodd;clip-rule:evenodd;fill:url(#SVGID_00000176737164741822262760000010820568794955426449_);" d="
				M364.1,163.2c-12,11.4-22.2,25.4-29.7,41.8c-4.1,9-8.4,14.9-12.5,18.5c7.7,4.5,19.4,1.4,29.8-21.5c9.2-20.2,18.8-36.5,55.7-35.5
				C397.5,159.7,383,158,364.1,163.2z"/>
		</g>
	</g>
	<g>
		<g>
			
				<radialGradient id="SVGID_00000016063420230446760220000005603798183992200083_" cx="726.34" cy="479.8285" r="862.9799" gradientTransform="matrix(-1 0 0 -1 1367.9919 344.7383)" gradientUnits="userSpaceOnUse">
				<stop  offset="0" style="stop-color:#FFFFFF"/>
				<stop  offset="0.5" style="stop-color:#E40068"/>
				<stop  offset="1" style="stop-color:#662270"/>
			</radialGradient>
			<path style="fill-rule:evenodd;clip-rule:evenodd;fill:url(#SVGID_00000016063420230446760220000005603798183992200083_);" d="
				M216.1,293c9-1.4,19.5-9.9,26.1-28.7c2.6-7.3,8.9-32.1,17.3-47.9c10-18.9,27.6-26.7,37.4,0.3c4.7,12.9,22.4,21.8,37.6-11.6
				c7.4-16.4,17.7-30.3,29.7-41.8c60.2-57.5,163.3-50.5,169.8,38.7c4.8-76-44.8-134.2-107-142.3C328,58,262.4,147.7,201.2,218.4
				c37.1-23.1,12.9,29.1,5.1,40C191.1,279.2,201.7,295.2,216.1,293z"/>
			
				<radialGradient id="SVGID_00000144323105724148865340000011360308855110056639_" cx="1276.2152" cy="-137.8221" r="368.2753" gradientTransform="matrix(-1 0 0 -1 1367.9919 344.7383)" gradientUnits="userSpaceOnUse">
				<stop  offset="0" style="stop-color:#FFFFFF"/>
				<stop  offset="0.5" style="stop-color:#E40068"/>
				<stop  offset="1" style="stop-color:#662270"/>
			</radialGradient>
			<path style="fill-rule:evenodd;clip-rule:evenodd;fill:url(#SVGID_00000144323105724148865340000011360308855110056639_);" d="
				M182,328.8c6,3.3,14.8-1,19.6-9.7c4.8-8.7,3.9-18.4-2.2-21.8c-6-3.3-14.8,1-19.6,9.7C175.1,315.6,176,325.4,182,328.8z"/>
			
				<linearGradient id="SVGID_00000181766426196652342590000016930153588694202032_" gradientUnits="userSpaceOnUse" x1="1525.5486" y1="367.1952" x2="1031.4215" y2="196.656" gradientTransform="matrix(-1 0 0 -1 1367.9919 344.7383)">
				<stop  offset="0" style="stop-color:#54165E"/>
				<stop  offset="1" style="stop-color:#54165E;stop-opacity:0"/>
			</linearGradient>
			<path style="fill-rule:evenodd;clip-rule:evenodd;fill:url(#SVGID_00000181766426196652342590000016930153588694202032_);" d="
				M220.2,227.6C284.3,123.8,352.5,61,426.9,59.6C328,58,262.4,147.7,201.2,218.4C220.7,206.2,223.3,215,220.2,227.6z"/>
			
				<linearGradient id="SVGID_00000021119180237081104190000012833817145721792393_" gradientUnits="userSpaceOnUse" x1="1143.984" y1="193.9097" x2="1045.0542" y2="140.3437" gradientTransform="matrix(-1 0 0 -1 1367.9919 344.7383)">
				<stop  offset="0" style="stop-color:#54165E"/>
				<stop  offset="1" style="stop-color:#54165E;stop-opacity:0"/>
			</linearGradient>
			<path style="fill-rule:evenodd;clip-rule:evenodd;fill:url(#SVGID_00000021119180237081104190000012833817145721792393_);" d="
				M296.8,216.7c4.7,12.9,22.4,21.8,37.6-11.6c22.7-57.4-37.7-68.8-75,11.3C269.4,197.4,287,189.6,296.8,216.7z"/>
			
				<radialGradient id="SVGID_00000006682880424446989020000006519136321127856054_" cx="897.4254" cy="198.6053" r="207.4321" gradientTransform="matrix(-1 0 0 -1 1367.9919 344.7383)" gradientUnits="userSpaceOnUse">
				<stop  offset="0" style="stop-color:#FFFFFF"/>
				<stop  offset="0.5" style="stop-color:#E40068"/>
				<stop  offset="1" style="stop-color:#662270"/>
			</radialGradient>
			<path style="fill-rule:evenodd;clip-rule:evenodd;fill:url(#SVGID_00000006682880424446989020000006519136321127856054_);" d="
				M533.9,201.9c-4.5-95.7-111.1-100.2-169.8-38.7C424.3,105.7,527.4,112.7,533.9,201.9z"/>
		</g>
		<g>
			
				<radialGradient id="SVGID_00000029014205523234205910000013790383327313453978_" cx="1413.137" cy="-8.8282" r="712.4818" gradientTransform="matrix(-1 0 0 -1 1367.9919 344.7383)" gradientUnits="userSpaceOnUse">
				<stop  offset="0" style="stop-color:#FFFFFF"/>
				<stop  offset="0.5" style="stop-color:#E40068"/>
				<stop  offset="1" style="stop-color:#662270"/>
			</radialGradient>
			<path style="fill-rule:evenodd;clip-rule:evenodd;fill:url(#SVGID_00000029014205523234205910000013790383327313453978_);" d="
				M152.1,269.3c16.4-14.1,32.6-31.9,49.1-50.9C262.4,147.7,328,58,426.9,59.6c-93.6-12.3-163.1,50.2-238.8,60.2
				c-42.4,5.6-58.5,33.4-27.9,35.7c17.6,1.4,29,11.4,19.6,27.4c-13.6,23.1-49.8,33-73.3,45.7C38.5,265.1,97.8,316.2,152.1,269.3z"/>
			
				<radialGradient id="SVGID_00000065060468807175912840000001457161865940040621_" cx="1338.1154" cy="203.9344" r="220.1408" gradientTransform="matrix(-1 0 0 -1 1367.9919 344.7383)" gradientUnits="userSpaceOnUse">
				<stop  offset="0" style="stop-color:#FFFFFF"/>
				<stop  offset="0.5" style="stop-color:#E40068"/>
				<stop  offset="1" style="stop-color:#662270"/>
			</radialGradient>
			<path style="fill-rule:evenodd;clip-rule:evenodd;fill:url(#SVGID_00000065060468807175912840000001457161865940040621_);" d="
				M124.2,173.8c10.2-3.5,16.5-12,14.1-19c-2.4-7-12.6-10-22.7-6.5c-10.2,3.5-16.5,12-14.1,19C103.8,174.3,113.9,177.3,124.2,173.8z
				"/>
			
				<radialGradient id="SVGID_00000014635491199395434400000007589510821185212833_" cx="1052.3834" cy="222.3835" r="247.6145" gradientTransform="matrix(-1 0 0 -1 1367.9919 344.7383)" gradientUnits="userSpaceOnUse">
				<stop  offset="0" style="stop-color:#FFFFFF"/>
				<stop  offset="0.5" style="stop-color:#E40068"/>
				<stop  offset="1" style="stop-color:#662270"/>
			</radialGradient>
			<path style="fill-rule:evenodd;clip-rule:evenodd;fill:url(#SVGID_00000014635491199395434400000007589510821185212833_);" d="
				M426.9,59.6c-99.9-6-168.9,84.6-225.7,158.8C262.4,147.7,328,58,426.9,59.6z"/>
			
				<linearGradient id="SVGID_00000057148708190044543730000002911433057624596390_" gradientUnits="userSpaceOnUse" x1="1139.0283" y1="127.2906" x2="1185.7621" y2="199.0309" gradientTransform="matrix(-1 0 0 -1 1367.9919 344.7383)">
				<stop  offset="0" style="stop-color:#54165E"/>
				<stop  offset="1" style="stop-color:#54165E;stop-opacity:0"/>
			</linearGradient>
			<path style="fill-rule:evenodd;clip-rule:evenodd;fill:url(#SVGID_00000057148708190044543730000002911433057624596390_);" d="
				M160.2,155.5c17.6,1.4,29,11.4,19.6,27.4c-2.9,4.9-6.7,9.1-11.2,13c61.2-41.8,66.8-79,19.5-76.1
				C145.6,125.4,129.6,153.2,160.2,155.5z"/>
			
				<linearGradient id="SVGID_00000003066871481762235690000015650974922834888843_" gradientUnits="userSpaceOnUse" x1="1233.0724" y1="1.0118" x2="1233.0724" y2="106.7773" gradientTransform="matrix(-1 0 0 -1 1367.9919 344.7383)">
				<stop  offset="0" style="stop-color:#FFFFFF"/>
				<stop  offset="1" style="stop-color:#FFFFFF;stop-opacity:0"/>
			</linearGradient>
			<path style="fill-rule:evenodd;clip-rule:evenodd;fill:url(#SVGID_00000003066871481762235690000015650974922834888843_);" d="
				M146.3,265.3c13.7-11.8,27.3-26.7,41.1-42.7c-53.8,41.9-103.1,46.2-96,20.4C63.4,271.2,106.5,299.6,146.3,265.3z"/>
		</g>
		<g>
			
				<radialGradient id="SVGID_00000115499760059351260600000010507979165676042890_" cx="951.5383" cy="656.3806" r="711.7138" gradientTransform="matrix(-1 0 0 -1 1367.9919 344.7383)" gradientUnits="userSpaceOnUse">
				<stop  offset="0" style="stop-color:#FFFFFF"/>
				<stop  offset="0.5" style="stop-color:#E40068"/>
				<stop  offset="1" style="stop-color:#662270"/>
			</radialGradient>
			<path style="fill-rule:evenodd;clip-rule:evenodd;fill:url(#SVGID_00000115499760059351260600000010507979165676042890_);" d="
				M342.5,328.3c9.9,6.8,24.4,8.6,43.3,3.3c12-11.4,22.2-25.4,29.7-41.8c15.3-33.4,33-24.6,37.6-11.6c9.7,27,27.5,19.2,37.4,0.3
				c8.3-15.8,14.6-40.6,17.2-47.9c6.6-18.9,17.1-27.3,26.1-28.7c-6.5-89.2-109.6-96.2-169.8-38.7
				C444.7,140.6,446.5,246.6,342.5,328.3z"/>
			
				<linearGradient id="SVGID_00000087386253310930466140000007230641051815109308_" gradientUnits="userSpaceOnUse" x1="735.0858" y1="180.6794" x2="959.1924" y2="180.6794" gradientTransform="matrix(-1 0 0 -1 1367.9919 344.7383)">
				<stop  offset="0" style="stop-color:#54165E"/>
				<stop  offset="1" style="stop-color:#54165E;stop-opacity:0"/>
			</linearGradient>
			<path style="fill-rule:evenodd;clip-rule:evenodd;fill:url(#SVGID_00000087386253310930466140000007230641051815109308_);" d="
				M393.1,160.9c41.2-38.9,124-34.2,140.7,41c-6.5-89.2-109.6-96.2-169.8-38.7C375.3,160.1,385.1,159.5,393.1,160.9z"/>
			
				<linearGradient id="SVGID_00000151522973985935515910000014221133497895753654_" gradientUnits="userSpaceOnUse" x1="873.7004" y1="-39.4379" x2="873.7004" y2="172.6681" gradientTransform="matrix(-1 0 0 -1 1367.9919 344.7383)">
				<stop  offset="0" style="stop-color:#54165E"/>
				<stop  offset="1" style="stop-color:#54165E;stop-opacity:0"/>
			</linearGradient>
			<path style="fill-rule:evenodd;clip-rule:evenodd;fill:url(#SVGID_00000151522973985935515910000014221133497895753654_);" d="
				M490.6,278.5c8.3-15.8,14.6-40.6,17.2-47.9c4.5-12.7,10.6-20.7,17-25c-10-3.9-25.5,2.8-34.3,27.9c-2.5,7.3-8.9,32.1-17.2,47.9
				c-2.7,5.1-6,9.4-9.5,12.4C472.9,299.5,483.6,291.7,490.6,278.5z"/>
			
				<linearGradient id="SVGID_00000003788384896071807250000017443045280126183350_" gradientUnits="userSpaceOnUse" x1="982.6944" y1="-62.3954" x2="982.6944" y2="123.4488" gradientTransform="matrix(-1 0 0 -1 1367.9919 344.7383)">
				<stop  offset="0" style="stop-color:#54165E"/>
				<stop  offset="1" style="stop-color:#54165E;stop-opacity:0"/>
			</linearGradient>
			<path style="fill-rule:evenodd;clip-rule:evenodd;fill:url(#SVGID_00000003788384896071807250000017443045280126183350_);" d="
				M385.9,331.6c12-11.4,22.2-25.4,29.7-41.8c4.1-9,8.4-14.9,12.5-18.6c-7.7-4.5-19.4-1.4-29.8,21.5c-9.2,20.2-18.8,36.5-55.7,35.5
				C352.4,335.1,367,336.9,385.9,331.6z"/>
		</g>
	</g>
</g>
</svg>
