<?xml version="1.0" encoding="utf-8"?>
<!-- Generator: Adobe Illustrator 26.3.1, SVG Export Plug-In . SVG Version: 6.00 Build 0)  -->
<svg version="1.1" id="Layer_1" xmlns="http://www.w3.org/2000/svg" xmlns:xlink="http://www.w3.org/1999/xlink" x="0px" y="0px"
	 viewBox="0 0 1280 1280" style="enable-background:new 0 0 1280 1280;" xml:space="preserve">
<style type="text/css">
	.st0{fill-rule:evenodd;clip-rule:evenodd;fill:url(#SVGID_1_);}
	.st1{fill-rule:evenodd;clip-rule:evenodd;fill:url(#SVGID_00000033356711828680297790000003912186212481803945_);}
	.st2{fill-rule:evenodd;clip-rule:evenodd;fill:url(#SVGID_00000139283515615301776510000006644534138177206666_);}
	.st3{fill-rule:evenodd;clip-rule:evenodd;fill:url(#SVGID_00000018204468097240542020000003948820916923699338_);}
	.st4{fill-rule:evenodd;clip-rule:evenodd;fill:url(#SVGID_00000059285395461994252060000013307088042924627863_);}
	.st5{fill-rule:evenodd;clip-rule:evenodd;fill:url(#SVGID_00000020372041283163245430000017126106307667062701_);}
	.st6{fill-rule:evenodd;clip-rule:evenodd;fill:url(#SVGID_00000051346953380613368360000013971444854994110117_);}
	.st7{fill-rule:evenodd;clip-rule:evenodd;fill:url(#SVGID_00000122712151225379074650000014713775525343936933_);}
	.st8{fill-rule:evenodd;clip-rule:evenodd;fill:url(#SVGID_00000183960935552698512230000001028363258808019870_);}
	.st9{fill-rule:evenodd;clip-rule:evenodd;fill:url(#SVGID_00000035513568451864734020000014818347719155467430_);}
	.st10{fill-rule:evenodd;clip-rule:evenodd;fill:url(#SVGID_00000022554825156593389730000011376004398393859488_);}
	.st11{fill-rule:evenodd;clip-rule:evenodd;fill:url(#SVGID_00000083057323577158733460000005727923944359904152_);}
	.st12{fill-rule:evenodd;clip-rule:evenodd;fill:url(#SVGID_00000085941791302335763010000007680925084211464603_);}
	.st13{fill-rule:evenodd;clip-rule:evenodd;fill:url(#SVGID_00000056426297272076411830000007673317991555476119_);}
	.st14{fill-rule:evenodd;clip-rule:evenodd;fill:url(#SVGID_00000038378425220355330020000009727683869176586892_);}
	.st15{fill-rule:evenodd;clip-rule:evenodd;fill:url(#SVGID_00000043441200915238699610000011337662710649903771_);}
	.st16{fill-rule:evenodd;clip-rule:evenodd;fill:url(#SVGID_00000016772357986492032990000010654561799723859385_);}
	.st17{fill-rule:evenodd;clip-rule:evenodd;fill:url(#SVGID_00000165943118579345100310000012984295594150699936_);}
	.st18{fill-rule:evenodd;clip-rule:evenodd;fill:url(#SVGID_00000176008715332611925610000004045140105164985527_);}
	.st19{fill-rule:evenodd;clip-rule:evenodd;fill:url(#SVGID_00000107579228720267529190000005802181285677176735_);}
	.st20{fill-rule:evenodd;clip-rule:evenodd;fill:url(#SVGID_00000057116508240410663640000009188463626868845967_);}
	.st21{fill-rule:evenodd;clip-rule:evenodd;fill:url(#SVGID_00000101096670493639060360000008214750113769928093_);}
	.st22{fill-rule:evenodd;clip-rule:evenodd;fill:url(#SVGID_00000040533539495245061480000005184692055881892230_);}
	.st23{fill-rule:evenodd;clip-rule:evenodd;fill:url(#SVGID_00000101070491499792400590000006601345434908539810_);}
	.st24{fill-rule:evenodd;clip-rule:evenodd;fill:url(#SVGID_00000103254924050109901540000005946017985083700922_);}
	.st25{fill-rule:evenodd;clip-rule:evenodd;fill:url(#SVGID_00000054956075907212927010000010953322624802127256_);}
	.st26{fill-rule:evenodd;clip-rule:evenodd;fill:url(#SVGID_00000012467347121079215540000000303457654018864810_);}
	.st27{fill-rule:evenodd;clip-rule:evenodd;fill:url(#SVGID_00000165936548548847685120000008830352547652811965_);}
</style>
<g>
	<g>
		<g>
			<radialGradient id="SVGID_1_" cx="87.0261" cy="1432.7251" r="1789.5348" gradientUnits="userSpaceOnUse">
				<stop  offset="0" style="stop-color:#FFFFFF"/>
				<stop  offset="0.5" style="stop-color:#2FAFE6"/>
				<stop  offset="1" style="stop-color:#32338F"/>
			</radialGradient>
			<path class="st0" d="M969.5,545.1c-18.7,2.8-40.4,20.5-54,59.5c-5.3,15.2-18.4,66.5-35.8,99.4c-20.6,39.2-57.3,55.3-77.5-0.7
				c-9.7-26.8-46.5-45.2-78.1,24.1c-15.4,34-36.8,62.9-61.5,86.6C537.8,933.4,324,918.8,310.5,733.9
				c-10,157.7,92.9,278.2,221.8,295.1c205.1,3.2,341.1-182.6,468-329.3c-76.9,47.9-26.8-60.4-10.5-83
				C1021.3,573.6,999.3,540.5,969.5,545.1z"/>
			
				<radialGradient id="SVGID_00000026127734787900934470000000534083843750651581_" cx="1227.2815" cy="151.9451" r="763.6404" gradientUnits="userSpaceOnUse">
				<stop  offset="0" style="stop-color:#FFFFFF"/>
				<stop  offset="0.5" style="stop-color:#2FAFE6"/>
				<stop  offset="1" style="stop-color:#32338F"/>
			</radialGradient>
			<path style="fill-rule:evenodd;clip-rule:evenodd;fill:url(#SVGID_00000026127734787900934470000000534083843750651581_);" d="
				M1040.1,470.8c-12.5-6.9-30.8,2.1-40.7,20.1c-10,18-8,38.2,4.5,45.2c12.5,6.9,30.6-2.1,40.7-20.1
				C1054.6,498.1,1052.6,477.7,1040.1,470.8z"/>
			
				<linearGradient id="SVGID_00000006670356474995338850000018065346668177274280_" gradientUnits="userSpaceOnUse" x1="1744.312" y1="1199.158" x2="719.6643" y2="845.519">
				<stop  offset="0" style="stop-color:#32338F"/>
				<stop  offset="1" style="stop-color:#32338F;stop-opacity:0"/>
			</linearGradient>
			<path style="fill-rule:evenodd;clip-rule:evenodd;fill:url(#SVGID_00000006670356474995338850000018065346668177274280_);" d="
				M961.1,680.7C828.1,895.8,686.6,1026.2,532.4,1029c205.1,3.2,341.1-182.6,468-329.3C960,724.9,954.6,706.8,961.1,680.7z"/>
			
				<linearGradient id="SVGID_00000109717995113434623540000016027667743265942696_" gradientUnits="userSpaceOnUse" x1="953.0916" y1="839.8297" x2="747.9305" y2="728.7444">
				<stop  offset="0" style="stop-color:#32338F"/>
				<stop  offset="1" style="stop-color:#32338F;stop-opacity:0"/>
			</linearGradient>
			<path style="fill-rule:evenodd;clip-rule:evenodd;fill:url(#SVGID_00000109717995113434623540000016027667743265942696_);" d="
				M802.2,703.3c-9.7-26.8-46.5-45.2-78.1,24.1c-47,119,78.2,142.6,155.6-23.4C859,743.2,822.4,759.3,802.2,703.3z"/>
			
				<radialGradient id="SVGID_00000148659011989524073000000003080124517504226717_" cx="441.7992" cy="849.5623" r="430.1445" gradientUnits="userSpaceOnUse">
				<stop  offset="0" style="stop-color:#FFFFFF"/>
				<stop  offset="0.5" style="stop-color:#2FAFE6"/>
				<stop  offset="1" style="stop-color:#32338F"/>
			</radialGradient>
			<path style="fill-rule:evenodd;clip-rule:evenodd;fill:url(#SVGID_00000148659011989524073000000003080124517504226717_);" d="
				M310.5,733.9c9.4,198.5,230.4,207.8,352.1,80.2C537.8,933.4,324,918.8,310.5,733.9z"/>
		</g>
		<g>
			
				<radialGradient id="SVGID_00000018959263208544041860000017487305758225023378_" cx="1511.2137" cy="419.4145" r="1477.4418" gradientUnits="userSpaceOnUse">
				<stop  offset="0" style="stop-color:#FFFFFF"/>
				<stop  offset="0.5" style="stop-color:#2FAFE6"/>
				<stop  offset="1" style="stop-color:#32338F"/>
			</radialGradient>
			<path style="fill-rule:evenodd;clip-rule:evenodd;fill:url(#SVGID_00000018959263208544041860000017487305758225023378_);" d="
				M1102.2,594.1c-34,29.3-67.5,66.1-101.8,105.6c-126.9,146.7-262.9,332.6-468,329.3c194.1,25.6,338.2-104,495.3-124.8
				c88-11.6,121.3-69.2,57.8-74c-36.5-2.8-60.2-23.7-40.7-56.9c28.2-47.9,103.2-68.5,152-94.8
				C1337.7,602.9,1214.8,496.9,1102.2,594.1z"/>
			
				<radialGradient id="SVGID_00000096048312198720895170000002805674295032247467_" cx="1355.6471" cy="860.6168" r="456.5029" gradientUnits="userSpaceOnUse">
				<stop  offset="0" style="stop-color:#FFFFFF"/>
				<stop  offset="0.5" style="stop-color:#2FAFE6"/>
				<stop  offset="1" style="stop-color:#32338F"/>
			</radialGradient>
			<path style="fill-rule:evenodd;clip-rule:evenodd;fill:url(#SVGID_00000096048312198720895170000002805674295032247467_);" d="
				M1160.1,792.2c-21.1,7.2-34.3,24.8-29.2,39.5c4.9,14.6,26.1,20.6,47.2,13.5c21.2-7.2,34.2-24.8,29.3-39.4
				C1202.4,791.1,1181.3,785,1160.1,792.2z"/>
			
				<radialGradient id="SVGID_00000101798239562255013960000003059836928726219695_" cx="763.1331" cy="898.8666" r="513.4697" gradientUnits="userSpaceOnUse">
				<stop  offset="0" style="stop-color:#FFFFFF"/>
				<stop  offset="0.5" style="stop-color:#2FAFE6"/>
				<stop  offset="1" style="stop-color:#32338F"/>
			</radialGradient>
			<path style="fill-rule:evenodd;clip-rule:evenodd;fill:url(#SVGID_00000101798239562255013960000003059836928726219695_);" d="
				M532.4,1029c207.2,12.4,350.2-175.5,468-329.3C873.5,846.4,737.5,1032.2,532.4,1029z"/>
			
				<linearGradient id="SVGID_00000181769080352173887600000009750271356758039433_" gradientUnits="userSpaceOnUse" x1="942.807" y1="701.6815" x2="1039.7167" y2="850.4462">
				<stop  offset="0" style="stop-color:#32338F"/>
				<stop  offset="1" style="stop-color:#32338F;stop-opacity:0"/>
			</linearGradient>
			<path style="fill-rule:evenodd;clip-rule:evenodd;fill:url(#SVGID_00000181769080352173887600000009750271356758039433_);" d="
				M1085.5,830.2c-36.5-2.8-60.2-23.7-40.7-56.9c6-10.1,13.9-18.9,23.3-26.9c-126.9,86.6-138.6,163.8-40.4,157.8
				C1115.6,892.6,1148.9,835,1085.5,830.2z"/>
			
				<linearGradient id="SVGID_00000062887240745438299830000005330899190411448217_" gradientUnits="userSpaceOnUse" x1="1137.8213" y1="439.8285" x2="1137.8213" y2="659.1328">
				<stop  offset="0" style="stop-color:#FFFFFF"/>
				<stop  offset="1" style="stop-color:#FFFFFF;stop-opacity:0"/>
			</linearGradient>
			<path style="fill-rule:evenodd;clip-rule:evenodd;fill:url(#SVGID_00000062887240745438299830000005330899190411448217_);" d="
				M1114.2,602.5c-28.5,24.6-56.6,55.3-85.2,88.4c111.6-86.9,213.8-95.7,199.1-42.3C1286.1,590.3,1196.8,531.3,1114.2,602.5z"/>
		</g>
		<g>
			
				<radialGradient id="SVGID_00000006669490194665964990000008344569026822970533_" cx="554.0129" cy="1798.8281" r="1475.8491" gradientUnits="userSpaceOnUse">
				<stop  offset="0" style="stop-color:#FFFFFF"/>
				<stop  offset="0.5" style="stop-color:#2FAFE6"/>
				<stop  offset="1" style="stop-color:#32338F"/>
			</radialGradient>
			<path style="fill-rule:evenodd;clip-rule:evenodd;fill:url(#SVGID_00000006669490194665964990000008344569026822970533_);" d="
				M707.3,471.8c-20.5-14.2-50.7-17.8-89.8-6.9c-24.8,23.7-46.1,52.6-61.5,86.6c-31.7,69.4-68.4,51.1-78.1,24.1
				c-20.2-56-57-39.9-77.6-0.7c-17.3,32.8-30.3,84.2-35.7,99.4c-13.6,39.2-35.4,56.7-54,59.5c13.5,184.9,227.3,199.5,352.1,80.2
				C495.4,861,491.6,641.1,707.3,471.8z"/>
			
				<linearGradient id="SVGID_00000034771992593440428280000015816952866373282449_" gradientUnits="userSpaceOnUse" x1="105.1617" y1="812.3878" x2="569.8832" y2="812.3878">
				<stop  offset="0" style="stop-color:#32338F"/>
				<stop  offset="1" style="stop-color:#32338F;stop-opacity:0"/>
			</linearGradient>
			<path style="fill-rule:evenodd;clip-rule:evenodd;fill:url(#SVGID_00000034771992593440428280000015816952866373282449_);" d="
				M602.4,819c-85.3,80.6-257,70.9-291.9-85.1c13.5,184.9,227.3,199.5,352.1,80.2C639.3,820.5,619.1,821.9,602.4,819z"/>
			
				<linearGradient id="SVGID_00000014595195355474232820000015915479276690579375_" gradientUnits="userSpaceOnUse" x1="392.6051" y1="355.9503" x2="392.6051" y2="795.7732">
				<stop  offset="0" style="stop-color:#32338F"/>
				<stop  offset="1" style="stop-color:#32338F;stop-opacity:0"/>
			</linearGradient>
			<path style="fill-rule:evenodd;clip-rule:evenodd;fill:url(#SVGID_00000014595195355474232820000015915479276690579375_);" d="
				M400.3,575c-17.3,32.8-30.3,84.2-35.7,99.4c-9.3,26.4-22,42.9-35.2,51.8c20.6,8.1,52.9-5.9,71.2-57.8
				c5.2-15.2,18.4-66.6,35.6-99.4c5.6-10.5,12.4-19.5,19.7-25.7C436.9,531.6,414.7,547.8,400.3,575z"/>
			
				<linearGradient id="SVGID_00000083086996732926247280000001179548140493552017_" gradientUnits="userSpaceOnUse" x1="618.621" y1="308.3398" x2="618.621" y2="693.7042">
				<stop  offset="0" style="stop-color:#32338F"/>
				<stop  offset="1" style="stop-color:#32338F;stop-opacity:0"/>
			</linearGradient>
			<path style="fill-rule:evenodd;clip-rule:evenodd;fill:url(#SVGID_00000083086996732926247280000001179548140493552017_);" d="
				M617.4,464.9c-24.8,23.7-46.1,52.6-61.5,86.6c-8.6,18.7-17.4,30.9-26,38.5c16,9.4,40.2,2.9,61.8-44.5
				c19.1-41.8,39-75.7,115.5-73.7C686.8,457.6,656.6,454,617.4,464.9z"/>
		</g>
	</g>
	<g>
		<g>
			
				<radialGradient id="SVGID_00000127034536781878384320000009068978653256570014_" cx="400.936" cy="564.4315" r="1789.5378" gradientTransform="matrix(-1 0 0 -1 1593.9141 410.7383)" gradientUnits="userSpaceOnUse">
				<stop  offset="0" style="stop-color:#FFFFFF"/>
				<stop  offset="0.5" style="stop-color:#E40068"/>
				<stop  offset="1" style="stop-color:#662270"/>
			</radialGradient>
			<path style="fill-rule:evenodd;clip-rule:evenodd;fill:url(#SVGID_00000127034536781878384320000009068978653256570014_);" d="
				M310.5,733.9c18.7-2.8,40.4-20.5,54-59.5c5.3-15.2,18.4-66.6,35.8-99.4c20.6-39.2,57.3-55.3,77.5,0.7
				c9.7,26.8,46.5,45.2,78.1-24.1c15.4-34,36.8-62.9,61.5-86.6C742.2,345.6,956,360.2,969.5,545.1c10-157.6-92.9-278.2-221.8-295.1
				c-205.1-3.2-341.1,182.6-468,329.3c76.9-47.9,26.8,60.4,10.5,83C258.7,705.4,280.7,738.5,310.5,733.9z"/>
			
				<radialGradient id="SVGID_00000101788460962249988700000009111404449414114988_" cx="1541.2009" cy="-716.3464" r="763.652" gradientTransform="matrix(-1 0 0 -1 1593.9141 410.7383)" gradientUnits="userSpaceOnUse">
				<stop  offset="0" style="stop-color:#FFFFFF"/>
				<stop  offset="0.5" style="stop-color:#E40068"/>
				<stop  offset="1" style="stop-color:#662270"/>
			</radialGradient>
			<path style="fill-rule:evenodd;clip-rule:evenodd;fill:url(#SVGID_00000101788460962249988700000009111404449414114988_);" d="
				M239.9,808.2c12.5,6.9,30.7-2.1,40.7-20.1c10-18,8-38.2-4.5-45.2c-12.5-6.9-30.6,2.1-40.7,20.1
				C225.4,780.9,227.4,801.3,239.9,808.2z"/>
			
				<linearGradient id="SVGID_00000033364791574099392930000017774828394481493380_" gradientUnits="userSpaceOnUse" x1="2058.2488" y1="330.8783" x2="1033.5787" y2="-22.7684" gradientTransform="matrix(-1 0 0 -1 1593.9141 410.7383)">
				<stop  offset="0" style="stop-color:#54165E"/>
				<stop  offset="1" style="stop-color:#54165E;stop-opacity:0"/>
			</linearGradient>
			<path style="fill-rule:evenodd;clip-rule:evenodd;fill:url(#SVGID_00000033364791574099392930000017774828394481493380_);" d="
				M318.9,598.3C451.9,383.2,593.4,252.8,747.6,250c-205.1-3.2-341.1,182.6-468,329.3C320,554.1,325.4,572.2,318.9,598.3z"/>
			
				<linearGradient id="SVGID_00000165213428442749134560000017352967754265081011_" gradientUnits="userSpaceOnUse" x1="1266.9967" y1="-28.4578" x2="1061.8459" y2="-139.5375" gradientTransform="matrix(-1 0 0 -1 1593.9141 410.7383)">
				<stop  offset="0" style="stop-color:#54165E"/>
				<stop  offset="1" style="stop-color:#54165E;stop-opacity:0"/>
			</linearGradient>
			<path style="fill-rule:evenodd;clip-rule:evenodd;fill:url(#SVGID_00000165213428442749134560000017352967754265081011_);" d="
				M477.8,575.7c9.7,26.8,46.5,45.2,78.1-24.1c47-119-78.2-142.6-155.5,23.4C421,535.8,457.6,519.7,477.8,575.7z"/>
			
				<radialGradient id="SVGID_00000070109377994092771210000001493308888738273213_" cx="755.7125" cy="-18.7177" r="430.1497" gradientTransform="matrix(-1 0 0 -1 1593.9141 410.7383)" gradientUnits="userSpaceOnUse">
				<stop  offset="0" style="stop-color:#FFFFFF"/>
				<stop  offset="0.5" style="stop-color:#E40068"/>
				<stop  offset="1" style="stop-color:#662270"/>
			</radialGradient>
			<path style="fill-rule:evenodd;clip-rule:evenodd;fill:url(#SVGID_00000070109377994092771210000001493308888738273213_);" d="
				M969.5,545.1c-9.4-198.5-230.4-207.8-352.1-80.1C742.2,345.6,956,360.2,969.5,545.1z"/>
		</g>
		<g>
			
				<radialGradient id="SVGID_00000078006749468860139230000003963880417185107848_" cx="1825.1287" cy="-448.8679" r="1477.4373" gradientTransform="matrix(-1 0 0 -1 1593.9141 410.7383)" gradientUnits="userSpaceOnUse">
				<stop  offset="0" style="stop-color:#FFFFFF"/>
				<stop  offset="0.5" style="stop-color:#E40068"/>
				<stop  offset="1" style="stop-color:#662270"/>
			</radialGradient>
			<path style="fill-rule:evenodd;clip-rule:evenodd;fill:url(#SVGID_00000078006749468860139230000003963880417185107848_);" d="
				M177.8,684.9c34-29.3,67.5-66.1,101.8-105.6c126.9-146.7,262.9-332.6,468-329.3c-194.1-25.6-338.2,104-495.3,124.8
				c-88,11.7-121.3,69.2-57.8,74c36.5,2.8,60.2,23.7,40.7,56.9c-28.2,47.9-103.2,68.5-152,94.8C-57.7,676.1,65.2,782.1,177.8,684.9z
				"/>
			
				<radialGradient id="SVGID_00000173845605390458642050000001453932977291958434_" cx="1669.5636" cy="-7.6694" r="456.5046" gradientTransform="matrix(-1 0 0 -1 1593.9141 410.7383)" gradientUnits="userSpaceOnUse">
				<stop  offset="0" style="stop-color:#FFFFFF"/>
				<stop  offset="0.5" style="stop-color:#E40068"/>
				<stop  offset="1" style="stop-color:#662270"/>
			</radialGradient>
			<path style="fill-rule:evenodd;clip-rule:evenodd;fill:url(#SVGID_00000173845605390458642050000001453932977291958434_);" d="
				M119.9,486.8c21.1-7.2,34.3-24.9,29.2-39.5c-4.9-14.6-26.1-20.6-47.2-13.5c-21.2,7.2-34.2,24.8-29.3,39.4
				C77.6,488,98.7,494,119.9,486.8z"/>
			
				<radialGradient id="SVGID_00000077310234930324428770000009050133640734294944_" cx="1077.047" cy="30.5831" r="513.4702" gradientTransform="matrix(-1 0 0 -1 1593.9141 410.7383)" gradientUnits="userSpaceOnUse">
				<stop  offset="0" style="stop-color:#FFFFFF"/>
				<stop  offset="0.5" style="stop-color:#E40068"/>
				<stop  offset="1" style="stop-color:#662270"/>
			</radialGradient>
			<path style="fill-rule:evenodd;clip-rule:evenodd;fill:url(#SVGID_00000077310234930324428770000009050133640734294944_);" d="
				M747.6,250c-207.2-12.4-350.2,175.5-468,329.3C406.5,432.7,542.5,246.8,747.6,250z"/>
			
				<linearGradient id="SVGID_00000036228949378243928470000007911201676462233477_" gradientUnits="userSpaceOnUse" x1="1256.7164" y1="-166.6079" x2="1353.6289" y2="-17.8389" gradientTransform="matrix(-1 0 0 -1 1593.9141 410.7383)">
				<stop  offset="0" style="stop-color:#54165E"/>
				<stop  offset="1" style="stop-color:#54165E;stop-opacity:0"/>
			</linearGradient>
			<path style="fill-rule:evenodd;clip-rule:evenodd;fill:url(#SVGID_00000036228949378243928470000007911201676462233477_);" d="
				M194.5,448.8c36.5,2.8,60.2,23.7,40.7,56.9c-6,10.1-13.9,18.9-23.3,27c126.9-86.6,138.6-163.8,40.4-157.8
				C164.4,386.5,131.1,444,194.5,448.8z"/>
			
				<linearGradient id="SVGID_00000115511431230188110140000004146373496313085096_" gradientUnits="userSpaceOnUse" x1="1451.7343" y1="-428.4679" x2="1451.7343" y2="-209.1476" gradientTransform="matrix(-1 0 0 -1 1593.9141 410.7383)">
				<stop  offset="0" style="stop-color:#FFFFFF"/>
				<stop  offset="1" style="stop-color:#FFFFFF;stop-opacity:0"/>
			</linearGradient>
			<path style="fill-rule:evenodd;clip-rule:evenodd;fill:url(#SVGID_00000115511431230188110140000004146373496313085096_);" d="
				M165.8,676.5c28.5-24.6,56.6-55.3,85.2-88.4C139.4,675,37.2,683.8,51.9,630.3C-6.1,688.7,83.2,747.7,165.8,676.5z"/>
		</g>
		<g>
			
				<radialGradient id="SVGID_00000027600049471032424740000003790872919229256604_" cx="867.9245" cy="930.5474" r="1475.8525" gradientTransform="matrix(-1 0 0 -1 1593.9141 410.7383)" gradientUnits="userSpaceOnUse">
				<stop  offset="0" style="stop-color:#FFFFFF"/>
				<stop  offset="0.5" style="stop-color:#E40068"/>
				<stop  offset="1" style="stop-color:#662270"/>
			</radialGradient>
			<path style="fill-rule:evenodd;clip-rule:evenodd;fill:url(#SVGID_00000027600049471032424740000003790872919229256604_);" d="
				M572.7,807.2c20.5,14.2,50.7,17.8,89.9,6.9c24.8-23.7,46-52.6,61.5-86.6c31.7-69.3,68.4-51.1,78-24.1c20.2,56,57,39.9,77.6,0.7
				c17.3-32.8,30.3-84.2,35.7-99.4c13.6-39.2,35.4-56.7,54-59.5C956,360.2,742.2,345.6,617.4,464.9
				C784.6,418.1,788.4,637.9,572.7,807.2z"/>
			
				<linearGradient id="SVGID_00000020391753392813086560000006358658290843068337_" gradientUnits="userSpaceOnUse" x1="419.0707" y1="-55.8932" x2="883.7982" y2="-55.8932" gradientTransform="matrix(-1 0 0 -1 1593.9141 410.7383)">
				<stop  offset="0" style="stop-color:#54165E"/>
				<stop  offset="1" style="stop-color:#54165E;stop-opacity:0"/>
			</linearGradient>
			<path style="fill-rule:evenodd;clip-rule:evenodd;fill:url(#SVGID_00000020391753392813086560000006358658290843068337_);" d="
				M677.6,460c85.3-80.6,257-70.9,291.8,85.1C956,360.2,742.2,345.6,617.4,464.9C640.7,458.5,660.9,457.1,677.6,460z"/>
			
				<linearGradient id="SVGID_00000003082953971172750630000017256143845528154541_" gradientUnits="userSpaceOnUse" x1="706.5148" y1="-512.3428" x2="706.5148" y2="-72.5034" gradientTransform="matrix(-1 0 0 -1 1593.9141 410.7383)">
				<stop  offset="0" style="stop-color:#54165E"/>
				<stop  offset="1" style="stop-color:#54165E;stop-opacity:0"/>
			</linearGradient>
			<path style="fill-rule:evenodd;clip-rule:evenodd;fill:url(#SVGID_00000003082953971172750630000017256143845528154541_);" d="
				M879.7,704c17.3-32.8,30.3-84.2,35.7-99.4c9.3-26.4,22-42.9,35.2-51.8c-20.6-8.1-52.9,5.9-71.2,57.8
				c-5.2,15.2-18.4,66.5-35.6,99.4c-5.6,10.5-12.4,19.5-19.7,25.7C843.1,747.4,865.3,731.2,879.7,704z"/>
			
				<linearGradient id="SVGID_00000001650622432464328770000005237868006922813589_" gradientUnits="userSpaceOnUse" x1="932.5325" y1="-559.946" x2="932.5325" y2="-174.5768" gradientTransform="matrix(-1 0 0 -1 1593.9141 410.7383)">
				<stop  offset="0" style="stop-color:#54165E"/>
				<stop  offset="1" style="stop-color:#54165E;stop-opacity:0"/>
			</linearGradient>
			<path style="fill-rule:evenodd;clip-rule:evenodd;fill:url(#SVGID_00000001650622432464328770000005237868006922813589_);" d="
				M662.6,814.1c24.8-23.7,46-52.6,61.5-86.6c8.6-18.7,17.4-30.9,26-38.5c-16-9.4-40.2-2.9-61.8,44.5c-19.1,41.8-39,75.7-115.5,73.7
				C593.2,821.4,623.4,825,662.6,814.1z"/>
		</g>
	</g>
</g>
</svg>
